<svg width="43" height="35" viewBox="0 0 43 35" fill="none" xmlns="http://www.w3.org/2000/svg">
<g clip-path="url(#clip0_10496_1393)">
<path d="M41.5902 10.3953L23.105 4.7194C22.0977 4.4101 21.0109 4.4101 20.0043 4.7194L1.51838 10.3953C-0.0416074 10.8741 -0.0416074 12.9358 1.51838 13.4147L4.74106 14.4041C4.03397 15.2777 3.59924 16.3433 3.55616 17.5103C2.91799 17.8759 2.46868 18.5355 2.46868 19.323C2.46868 20.0369 2.84509 20.6376 3.38718 21.0218L1.69532 28.6302C1.5482 29.2918 2.05185 29.9197 2.72978 29.9197H6.44817C7.12677 29.9197 7.63041 29.2918 7.48329 28.6302L5.79143 21.0218C6.33352 20.6376 6.70993 20.0369 6.70993 19.323C6.70993 18.5567 6.28117 17.9156 5.67215 17.5434C5.72251 16.5486 6.23146 15.6691 7.04327 15.1115L20.0036 19.0912C20.604 19.2753 21.7558 19.5051 23.1043 19.0912L41.5902 13.4153C43.1509 12.9358 43.1509 10.8748 41.5902 10.3953ZM23.7273 21.1171C21.8366 21.6973 20.2256 21.3768 19.3807 21.1171L9.77025 18.1666L8.83055 25.681C8.83055 28.0222 14.5271 29.9197 21.5543 29.9197C28.5815 29.9197 34.278 28.0222 34.278 25.681L33.3383 18.166L23.7273 21.1171Z" fill="white"/>
</g>
<defs>
<clipPath id="clip0_10496_1393">
<rect x="0.348145" y="0.248901" width="42.4125" height="33.9095" fill="white"/>
</clipPath>
</defs>
</svg>
