<svg width="114" height="114" viewBox="0 0 114 114" fill="none" xmlns="http://www.w3.org/2000/svg">
<path d="M93.8262 48.1816C93.8262 19.5879 78.4453 9.86133 64.0605 7.69336C64.0605 7.54688 64.0898 7.40039 64.0898 7.22461C64.0898 3.62109 60.8965 0.75 57 0.75C53.1035 0.75 50.0273 3.62109 50.0273 7.22461C50.0273 7.40039 50.0273 7.54688 50.0566 7.69336C35.6426 9.89062 20.1738 19.6465 20.1738 48.2402C20.1738 81.5801 11.8828 85.1543 0.75 94.5293H113.25C102.176 85.125 93.8262 81.5215 93.8262 48.1816Z" fill="#7A7A80"/>
<path d="M57.0586 113.25C64.9102 113.25 71.3555 107.42 72.2051 100.652H41.9121C42.7324 107.42 49.207 113.25 57.0586 113.25Z" fill="#7A7A80"/>
</svg>
