<svg width="36" height="36" viewBox="0 0 36 36" fill="none" xmlns="http://www.w3.org/2000/svg">
<path d="M34.2121 9.60266C34.7478 10.3661 34.8684 11.2299 34.5737 12.1942L29.0491 30.3951C28.7947 31.2522 28.2824 31.9721 27.5123 32.5547C26.7422 33.1373 25.9219 33.4286 25.0513 33.4286H6.50886C5.47761 33.4286 4.48319 33.0703 3.52559 32.3538C2.568 31.6373 1.9017 30.7567 1.5267 29.712C1.20527 28.8147 1.19188 27.9643 1.48652 27.1607C1.48652 27.1071 1.50661 26.9263 1.54679 26.6183C1.58697 26.3103 1.61375 26.0625 1.62715 25.875C1.64054 25.7678 1.62045 25.6239 1.56688 25.4431C1.51331 25.2623 1.49322 25.1317 1.50661 25.0513C1.5334 24.904 1.58697 24.7634 1.66733 24.6294C1.74768 24.4955 1.85817 24.3382 1.9988 24.1573C2.13943 23.9765 2.24992 23.8192 2.33028 23.6853C2.63831 23.1763 2.93965 22.5636 3.2343 21.8471C3.52894 21.1306 3.72983 20.5178 3.83698 20.0089C3.87716 19.875 3.8805 19.6741 3.84702 19.4062C3.81354 19.1384 3.81019 18.9509 3.83698 18.8437C3.87716 18.6964 3.991 18.5089 4.1785 18.2812C4.366 18.0536 4.47984 17.8995 4.52002 17.8192C4.80127 17.337 5.08252 16.721 5.36377 15.971C5.64502 15.221 5.81243 14.6183 5.866 14.1629C5.8794 14.0424 5.86266 13.8281 5.81578 13.5201C5.76891 13.212 5.77225 13.0245 5.82583 12.9576C5.8794 12.7835 6.02672 12.5792 6.26779 12.3448C6.50886 12.1105 6.65619 11.9598 6.70976 11.8928C6.96422 11.5446 7.24882 10.9788 7.56355 10.1953C7.87829 9.41181 8.06244 8.76561 8.11601 8.25668C8.12941 8.14954 8.10932 7.97878 8.05574 7.7444C8.00217 7.51003 7.98878 7.33257 8.01557 7.21204C8.04235 7.10489 8.10262 6.98436 8.19637 6.85043C8.29012 6.7165 8.41066 6.56248 8.55798 6.38838C8.7053 6.21427 8.81914 6.07364 8.8995 5.9665C9.00664 5.80579 9.11713 5.60155 9.23097 5.35378C9.34481 5.10601 9.44526 4.87163 9.53231 4.65065C9.61937 4.42967 9.72651 4.1886 9.85374 3.92744C9.98098 3.66628 10.1116 3.45199 10.2455 3.28458C10.3794 3.11717 10.5569 2.9598 10.7779 2.81248C10.9988 2.66516 11.2399 2.58815 11.5011 2.58146C11.7622 2.57476 12.0803 2.61159 12.4553 2.69195L12.4352 2.75221C12.9442 2.63168 13.2857 2.57141 13.4598 2.57141H28.7478C29.7389 2.57141 30.5023 2.94641 31.038 3.69641C31.5737 4.44641 31.6942 5.31695 31.3996 6.30802L25.8951 24.5089C25.413 26.1027 24.9342 27.1306 24.4587 27.5926C23.9833 28.0547 23.1228 28.2857 21.8772 28.2857H4.41957C4.05796 28.2857 3.8035 28.3861 3.65617 28.587C3.50885 28.8013 3.50215 29.0893 3.63608 29.4509C3.95751 30.3884 4.9218 30.8571 6.52895 30.8571H25.0714C25.4598 30.8571 25.8348 30.7533 26.1964 30.5457C26.5581 30.3382 26.7924 30.0603 26.8996 29.712L32.9264 9.88391C33.0201 9.58927 33.0536 9.20757 33.0268 8.73882C33.5358 8.93971 33.9308 9.22766 34.2121 9.60266ZM12.837 9.64284C12.7834 9.81695 12.7968 9.96762 12.8772 10.0948C12.9576 10.2221 13.0915 10.2857 13.279 10.2857H25.4933C25.6674 10.2857 25.8382 10.2221 26.0056 10.0948C26.173 9.96762 26.2835 9.81695 26.3371 9.64284L26.7589 8.35713C26.8125 8.18302 26.7991 8.03235 26.7188 7.90512C26.6384 7.77788 26.5045 7.71427 26.317 7.71427H14.1026C13.9285 7.71427 13.7578 7.77788 13.5904 7.90512C13.423 8.03235 13.3125 8.18302 13.2589 8.35713L12.837 9.64284ZM11.1696 14.7857C11.116 14.9598 11.1294 15.1105 11.2098 15.2377C11.2901 15.3649 11.4241 15.4286 11.6116 15.4286H23.8259C24 15.4286 24.1708 15.3649 24.3382 15.2377C24.5056 15.1105 24.6161 14.9598 24.6697 14.7857L25.0915 13.5C25.1451 13.3259 25.1317 13.1752 25.0513 13.048C24.971 12.9207 24.8371 12.8571 24.6496 12.8571H12.4352C12.2611 12.8571 12.0904 12.9207 11.9229 13.048C11.7555 13.1752 11.645 13.3259 11.5915 13.5L11.1696 14.7857Z" fill="white"/>
</svg>
