<svg width="36" height="36" viewBox="0 0 36 36" fill="none" xmlns="http://www.w3.org/2000/svg">
<path d="M20.2852 17.1985H15.7148V21.7688H20.2852V17.1985Z" fill="white"/>
<path d="M13.2852 17.1985H8.71484V21.7688H13.2852V17.1985Z" fill="white"/>
<path d="M27.45 17.1985H22.8796V21.7688H27.45V17.1985Z" fill="white"/>
<path d="M13.1272 24.1454H8.55688V28.7157H13.1272V24.1454Z" fill="white"/>
<path d="M20.2852 24.1454H15.7148V28.7157H20.2852V24.1454Z" fill="white"/>
<path d="M27.45 24.1454H22.8796V28.7157H27.45V24.1454Z" fill="white"/>
<path d="M10.9545 8.70474C9.82954 8.70474 8.90845 7.78364 8.90845 6.65864V2.05317C8.90845 0.928174 9.82954 0.00708008 10.9545 0.00708008C12.0795 0.00708008 13.0006 0.928174 13.0006 2.05317V6.66567C13.0006 7.78364 12.0795 8.70474 10.9545 8.70474Z" fill="white"/>
<path d="M30.2835 4.35242H27.9632V7.14382C27.9632 8.86648 26.578 10.2727 24.8835 10.2727H24.0679C22.3733 10.2727 20.9882 8.86648 20.9882 7.14382V4.35242H14.6319V7.14382C14.6319 8.86648 13.2468 10.2727 11.5522 10.2727H10.7366C9.04209 10.2727 7.65694 8.86648 7.65694 7.14382V4.35242H5.87803C3.97256 4.35242 2.41162 5.93445 2.41162 7.86804V32.4774C2.41162 34.411 3.97256 35.9931 5.87803 35.9931H30.2905C32.196 35.9931 33.7569 34.411 33.7569 32.4774V7.86804C33.7499 5.93445 32.189 4.35242 30.2835 4.35242ZM29.6929 29.1587C29.6929 30.361 28.7226 31.3454 27.5413 31.3454H8.62725C7.446 31.3454 6.47569 30.361 6.47569 29.1587V16.7555C6.47569 15.5532 7.446 14.4845 8.62725 14.4845H27.5413C28.7226 14.4845 29.6929 15.5532 29.6929 16.7555V29.1587Z" fill="white"/>
<path d="M24.4897 8.70474C23.3647 8.70474 22.4436 7.78364 22.4436 6.65864V2.05317C22.4436 0.928174 23.3647 0.00708008 24.4897 0.00708008C25.6147 0.00708008 26.5358 0.928174 26.5358 2.05317V6.66567C26.5358 7.78364 25.6147 8.70474 24.4897 8.70474Z" fill="white"/>
</svg>
