<svg width="12" height="12" viewBox="0 0 12 12" fill="none" xmlns="http://www.w3.org/2000/svg">
<path d="M6.5 3C6.5 2.72386 6.27614 2.5 6 2.5C5.72386 2.5 5.5 2.72386 5.5 3H6.5ZM6 6H5.5C5.5 6.18939 5.607 6.36252 5.77639 6.44721L6 6ZM7.77639 7.44721C8.02338 7.57071 8.32372 7.4706 8.44721 7.22361C8.57071 6.97662 8.4706 6.67628 8.22361 6.55279L7.77639 7.44721ZM10.5 6C10.5 8.48528 8.48528 10.5 6 10.5V11.5C9.03757 11.5 11.5 9.03757 11.5 6H10.5ZM6 10.5C3.51472 10.5 1.5 8.48528 1.5 6H0.5C0.5 9.03757 2.96243 11.5 6 11.5V10.5ZM1.5 6C1.5 3.51472 3.51472 1.5 6 1.5V0.5C2.96243 0.5 0.5 2.96243 0.5 6H1.5ZM6 1.5C8.48528 1.5 10.5 3.51472 10.5 6H11.5C11.5 2.96243 9.03757 0.5 6 0.5V1.5ZM5.5 3V6H6.5V3H5.5ZM5.77639 6.44721L7.77639 7.44721L8.22361 6.55279L6.22361 5.55279L5.77639 6.44721Z" fill="#AEAEB3"/>
</svg>
