<svg width="36" height="36" fill="#4F4F4F" viewBox="0 0 36 36" xmlns="http://www.w3.org/2000/svg">
<path d="M18 3C9.7125 3 3 9.7125 3 18C3 26.2875 9.7125 33 18 33C26.2875 33 33 26.2875 33 18C33 9.7125 26.2875 3 18 3ZM18 30C11.385 30 6 24.615 6 18C6 11.385 11.385 6 18 6C24.615 6 30 11.385 30 18C30 24.615 24.615 30 18 30ZM15.12 16.2975C15.2025 15.81 15.3525 15.375 15.57 14.9925C15.7875 14.61 16.0875 14.3025 16.455 14.07C16.8075 13.8525 17.25 13.7325 17.7975 13.725C18.1575 13.7325 18.4875 13.7925 18.7725 13.92C19.08 14.055 19.335 14.235 19.5525 14.46C19.77 14.685 19.935 14.955 20.055 15.255C20.175 15.555 20.2425 15.8775 20.2575 16.215H22.9425C22.92 15.51 22.7775 14.865 22.53 14.28C22.2825 13.695 21.9225 13.1925 21.4725 12.765C21.0225 12.3375 20.4825 12.015 19.8525 11.7825C19.2225 11.55 18.525 11.43 17.76 11.43C16.785 11.43 15.9375 11.595 15.2175 11.9325C14.4975 12.27 13.8975 12.7275 13.4175 13.3125C12.9375 13.8975 12.5775 14.5725 12.345 15.345C12.1125 16.1175 12 16.935 12 17.7975V18.21C12 19.08 12.12 19.8975 12.3525 20.67C12.585 21.4425 12.945 22.1175 13.425 22.695C13.905 23.2725 14.505 23.73 15.2325 24.0675C15.96 24.405 16.8075 24.57 17.7825 24.57C18.4875 24.57 19.1475 24.4575 19.7625 24.225C20.3775 23.9925 20.9175 23.6775 21.3825 23.2725C21.8475 22.8675 22.2225 22.4025 22.4925 21.8625C22.7625 21.3225 22.92 20.7525 22.9425 20.1375H20.2575C20.2425 20.4525 20.1675 20.7375 20.0325 21.0075C19.8975 21.2775 19.7175 21.5025 19.4925 21.69C19.2675 21.8775 19.005 22.0275 18.705 22.1325C18.42 22.23 18.12 22.2825 17.7975 22.2825C17.2575 22.2675 16.815 22.155 16.455 21.93C16.08 21.69 15.78 21.3825 15.5625 21C15.345 20.6175 15.195 20.1825 15.1125 19.6875C15.03 19.1925 15 18.7125 15 18.21V17.7975C15 17.2875 15.0375 16.785 15.12 16.2975V16.2975Z"  fill="#4F4F4F"/>
</svg>
