<svg width="110" height="110" viewBox="0 0 110 110" fill="none" xmlns="http://www.w3.org/2000/svg">
<path d="M59.6542 55L108.057 6.59676C109.352 5.30169 109.352 3.23767 108.057 1.98308C106.762 0.688006 104.698 0.688006 103.444 1.98308L55 50.3863L5.58499 0.971303C4.28992 -0.323767 2.2259 -0.323767 0.971302 0.971303C-0.323767 2.26637 -0.323767 4.33039 0.971302 5.58499L50.3863 55L0.971302 104.415C-0.323767 105.71 -0.323767 107.774 0.971302 109.029C1.61884 109.676 2.46873 110 3.27814 110C4.12803 110 4.93746 109.676 5.58499 109.029L55 59.6137L103.403 108.017C104.051 108.664 104.901 108.988 105.71 108.988C106.56 108.988 107.369 108.664 108.017 108.017C109.312 106.722 109.312 104.658 108.017 103.403L59.6542 55Z" fill="#7A7A80"/>
</svg>
