<svg width="24" height="17" viewBox="0 0 24 17" fill="none" xmlns="http://www.w3.org/2000/svg">
<path d="M12 10C13.381 10 14.631 9.44 15.536 8.535C16.44 7.631 17 6.381 17 5C17 3.619 16.44 2.369 15.536 1.465C14.631 0.56 13.381 0 12 0C10.619 0 9.369 0.56 8.464 1.465C7.56 2.369 7 3.619 7 5C7 6.381 7.56 7.631 8.464 8.535C9.369 9.44 10.619 10 12 10Z" fill="white"/>
<path d="M20 11C20.69 11 21.315 10.721 21.768 10.269C22.221 9.817 22.5 9.192 22.5 8.5C22.5 7.81 22.221 7.185 21.768 6.732C21.315 6.279 20.69 6 20 6C19.309 6 18.684 6.279 18.231 6.732C17.779 7.185 17.5 7.81 17.5 8.5C17.5 9.191 17.779 9.816 18.231 10.269C18.683 10.722 19.309 11 20 11Z" fill="white"/>
<path d="M20 11.59C18.669 11.59 17.668 11.996 17.083 12.558C15.968 11.641 14.205 11 12 11C9.734 11 8.005 11.648 6.908 12.564C6.312 11.999 5.3 11.59 4 11.59C1.812 11.59 0.5 12.68 0.5 13.772C0.5 14.317 1.812 14.864 4 14.864C4.604 14.864 5.146 14.813 5.623 14.731C5.613 14.822 5.583 14.911 5.583 15.001C5.583 16.001 7.989 17.001 12 17.001C15.762 17.001 18.417 16.001 18.417 15.001C18.417 14.916 18.406 14.831 18.397 14.746C18.86 14.819 19.392 14.864 20 14.864C22.051 14.864 23.5 14.317 23.5 13.772C23.5 12.68 22.127 11.59 20 11.59Z" fill="white"/>
<path d="M4 11C4.69 11 5.315 10.721 5.768 10.268C6.221 9.815 6.5 9.19 6.5 8.5C6.5 7.811 6.221 7.186 5.768 6.732C5.315 6.28 4.69 6 4 6C3.309 6 2.684 6.28 2.231 6.732C1.779 7.186 1.5 7.811 1.5 8.5C1.5 9.19 1.779 9.815 2.231 10.268C2.684 10.721 3.309 11 4 11Z" fill="white"/>
</svg>
