<svg width="89" height="89" viewBox="0 0 89 89" fill="none" xmlns="http://www.w3.org/2000/svg">
<rect width="89" height="89" rx="20" fill="#7EBF83"/>
<g clip-path="url(#clip0_10604_2857)">
<path fill-rule="evenodd" clip-rule="evenodd" d="M49.7146 42.5476C49.6978 38.0348 49.7247 36.1033 49.8086 35.804C50.0906 34.7976 50.9564 34.1242 52.2349 33.9167C53.5361 33.7056 55.291 33.9782 58.4442 34.8815C59.5332 35.1934 62.3368 35.8913 64.6744 36.4324C71.7155 38.062 75.9442 39.1078 77.6509 39.6417C81.7921 40.9372 82.3836 40.8182 83.9522 38.3742C84.5264 37.4796 86.0948 34.6177 86.0406 34.5635C86.0186 34.5414 82.5041 33.8842 78.2307 33.1031C73.9573 32.3219 63.8244 30.4137 55.7132 28.8626C47.6019 27.3115 37.6472 25.4192 33.5916 24.6575C29.536 23.8958 22.2792 22.5131 17.4654 21.5849C12.6516 20.6567 8.69144 19.9189 8.66505 19.9453C8.63866 19.9717 8.6992 20.2538 8.79958 20.5722C9.02746 21.2952 9.71103 21.9949 10.6256 22.4414C10.9774 22.6131 13.3161 23.4496 15.8227 24.3002C21.8953 26.3611 23.7037 27.1195 25.7569 28.467C26.8679 29.1961 28.2669 30.5987 28.6924 31.41C29.3615 32.6859 29.3414 32.4115 29.3414 40.281V47.425L29.0086 47.3808C27.8088 47.2214 26.1771 47.1306 24.5102 47.1306H22.5821V48.0011V48.8717H36.1601H49.7381L49.7146 42.5476Z" fill="white"/>
<path fill-rule="evenodd" clip-rule="evenodd" d="M68.3826 44.6947C72.3655 42.1197 75.6261 39.9603 75.6284 39.896C75.6307 39.8318 75.2524 39.6774 74.7877 39.5528C74.323 39.4283 72.8611 39.0339 71.5392 38.6765C70.2172 38.319 69.1247 38.0374 69.1114 38.0507C69.098 38.0641 69.1584 38.2806 69.2456 38.5318C69.4619 39.1555 69.3926 40.0822 69.0817 40.7231C68.9469 41.0011 68.5119 41.5704 68.1151 41.9881C67.007 43.1546 65.1484 44.3256 61.4943 46.1593C60.7874 46.514 59.4858 47.2911 58.6017 47.8861C57.4688 48.6486 56.8202 49.0165 56.4048 49.1321C56.0806 49.2224 55.7693 49.3123 55.7129 49.3319C55.6566 49.3515 56.8549 49.3696 58.3757 49.3721L61.1409 49.3767L68.3826 44.6948V44.6947Z" fill="white"/>
<path fill-rule="evenodd" clip-rule="evenodd" d="M63.855 48.9366C64.8975 48.5639 65.5798 48.1316 68.3101 46.1139C71.8159 43.5229 74.4877 41.9102 75.5303 41.7559C75.8397 41.7101 76.3247 41.7575 77.006 41.9C78.6495 42.2437 78.9257 42.2005 80.2578 41.3915L81.0483 40.9113L80.312 40.6814C79.2709 40.3562 77.6557 40.2881 76.5909 40.5244C75.0165 40.8738 73.5079 41.6728 70.8645 43.5573C68.9407 44.9288 66.7096 46.3676 65.3235 47.1305C64.113 47.7968 62.5237 48.9057 62.5237 49.084C62.5237 49.2525 63.1721 49.1807 63.855 48.9366Z" fill="white"/>
<path fill-rule="evenodd" clip-rule="evenodd" d="M27.6839 30.8298C26.7378 29.4781 25.5532 28.7355 22.0701 27.3105C21.4224 27.0455 19.4824 26.2368 17.759 25.5133C13.6345 23.7818 10.0647 22.4734 9.75074 22.578C9.58751 22.6324 11.1942 23.7717 12.7504 24.705C15.1382 26.137 18.0713 27.5524 21.6093 28.9799C23.2623 29.6469 27.9893 31.4611 28.0741 31.4611C28.1025 31.4611 27.9269 31.177 27.6839 30.8298Z" fill="white"/>
<rect width="35.8086" height="0.521482" transform="translate(21.2939 48.8457)" fill="white"/>
</g>
<path d="M15.9246 64.02C15.9246 66.1634 16.5161 67.6336 17.6992 68.4308C18.8908 69.2205 20.4039 69.6153 22.2384 69.6153C24.4416 69.6153 26.0618 69.1115 27.0991 68.1037C28.1364 67.0959 28.6637 65.5617 28.6808 63.5011L28.7451 56.5634L30.8797 56.1347L31.0211 55.2773H24.8745L24.7459 56.1347L27.0991 56.6085L27.0606 63.8733C27.052 65.3098 26.6876 66.3777 25.9675 67.0771C25.2475 67.7766 24.2187 68.1262 22.8814 68.1262C21.5012 68.1262 20.4081 67.754 19.6023 67.0095C18.805 66.2574 18.4064 65.1067 18.4064 63.5575V56.5634L20.5796 56.1347L20.6953 55.2773H13.7258L13.5586 56.1347L15.9246 56.6085V64.02ZM33.8759 56.6085V67.9457L31.7284 68.4759L31.6255 69.3107H44.6775L45.0633 65.7798L43.996 65.6332L42.7357 68.2278H36.3705V62.734H39.8939L40.3311 64.7081L41.4241 64.5615L41.8613 60.1732L40.6397 60.3312L40.0996 61.6849H36.3705V56.3152H42.4271L42.9543 58.7406L44.0731 58.8872L44.4717 55.2773H31.6769L31.5355 56.1347L33.8759 56.6085ZM47.7122 56.71V67.9457L45.5647 68.4759L45.4619 69.3107H51.5699L51.7113 68.4083L49.3581 68.0247V58.4698L57.8837 69.6491L59.8511 69.2994V56.5634L61.9986 56.1347L62.1658 55.2773H56.0578L55.9034 56.1347L58.2824 56.6085V66.2198L50.0139 55.2773H45.5133L45.3718 56.1347L47.7122 56.71ZM64.9176 56.6085V67.9457L62.7701 68.4759L62.6673 69.3107H70.267L70.4341 68.3744L67.4122 67.9345V62.7904H70.9356L71.3214 64.8209L72.453 64.663L72.8002 60.2409L71.6429 60.3989L71.1028 61.7526H67.4122V56.3152H73.3917L73.8289 58.7519L74.9605 58.9098L75.4877 55.2773H62.7187L62.5773 56.1347L64.9176 56.6085Z" fill="white"/>
<defs>
<clipPath id="clip0_10604_2857">
<rect width="79.1787" height="30.1508" fill="white" transform="translate(7.47461 19.2949)"/>
</clipPath>
</defs>
</svg>
