<svg width="85" height="50" viewBox="0 0 85 50" fill="none" xmlns="http://www.w3.org/2000/svg">
<path d="M20.096 22.512C20.096 24.112 19.872 25.4027 19.424 26.384C18.976 27.344 18.4747 28.08 17.92 28.592C17.3867 29.104 16.6507 29.5307 15.712 29.872C14.7733 30.2133 13.6747 30.384 12.416 30.384C9.344 30.384 7.05067 29.7973 5.536 28.624C4.04267 27.4293 3.296 25.5413 3.296 22.96V9.68L0.608 9.392V8.624H10.336V9.392L7.552 9.68V22.32C7.552 24.7093 7.968 26.4693 8.8 27.6C9.632 28.7093 11.008 29.264 12.928 29.264C14.848 29.264 16.2667 28.7413 17.184 27.696C18.1013 26.6293 18.56 24.8053 18.56 22.224V9.872L16.192 9.552V8.624H22.688V9.616L20.096 9.872V22.512ZM23.8223 30V29.232L26.6063 28.944V9.68L23.8223 9.392V8.624H40.1423V13.168H39.1183L37.8703 9.776L30.8623 9.68V18.288H37.0703L38.0623 15.92H38.9583V21.872H38.0303L37.0703 19.44H30.8623V28.976L38.8303 28.88L40.4943 25.232H41.5183L41.1343 30H23.8223ZM59.1578 8.624H65.6218V9.392L63.3818 10.16V30H61.2058L46.9658 12.464V28.432L49.6538 29.232V30H43.2538V29.232L45.5898 28.432V9.68L42.8058 9.392V8.624H48.8218L61.6218 24.56V10.128L59.1578 9.392V8.624ZM74.3628 19.984V28.944L77.1468 29.232V30H67.3548V29.232L70.1388 28.944V9.68L67.3548 9.328V8.592H83.6748V13.168H82.6508L81.4348 9.776L74.3628 9.68V18.832H80.6028L81.5948 16.464H82.5228V22.416H81.5628L80.6028 19.984H74.3628Z" fill="white"/>
<path d="M40.3037 40.9072C40.3037 42.0329 40.0986 42.974 39.6885 43.7305C39.2783 44.4824 38.6836 45.0498 37.9043 45.4326C37.1296 45.8109 36.1885 46 35.0811 46H32.3672V36.0059H35.3818C36.3981 36.0059 37.2731 36.1927 38.0068 36.5664C38.7406 36.9355 39.3057 37.4847 39.7021 38.2139C40.1032 38.9385 40.3037 39.8363 40.3037 40.9072ZM39.0801 40.9482C39.0801 40.0505 38.9297 39.3099 38.6289 38.7266C38.3327 38.1432 37.8952 37.7103 37.3164 37.4277C36.7422 37.1406 36.0381 36.9971 35.2041 36.9971H33.5293V45.002H34.9443C36.3206 45.002 37.3529 44.6624 38.041 43.9834C38.7337 43.3044 39.0801 42.2926 39.0801 40.9482ZM42.7354 46V36.0059H43.8975V46H42.7354ZM51.128 40.7637H54.6212V45.6104C54.0971 45.7881 53.557 45.9202 53.0011 46.0068C52.4496 46.0934 51.8321 46.1367 51.1485 46.1367C50.1095 46.1367 49.2322 45.9294 48.5167 45.5146C47.8057 45.0999 47.2657 44.5098 46.8966 43.7441C46.5274 42.974 46.3429 42.0602 46.3429 41.0029C46.3429 39.9684 46.5457 39.0661 46.9513 38.2959C47.3614 37.5257 47.9516 36.9287 48.7218 36.5049C49.4965 36.0765 50.4262 35.8623 51.5108 35.8623C52.0668 35.8623 52.5932 35.9147 53.0899 36.0195C53.5912 36.1198 54.0561 36.2633 54.4845 36.4502L54.0401 37.4619C53.671 37.3024 53.2631 37.1657 52.8165 37.0518C52.3744 36.9378 51.9164 36.8809 51.4425 36.8809C50.6267 36.8809 49.9272 37.0495 49.3438 37.3867C48.7651 37.724 48.3207 38.2002 48.0108 38.8154C47.7055 39.4307 47.5528 40.1598 47.5528 41.0029C47.5528 41.8369 47.6873 42.5638 47.9561 43.1836C48.225 43.7988 48.6443 44.2773 49.2139 44.6191C49.7836 44.9609 50.5173 45.1318 51.4151 45.1318C51.8663 45.1318 52.2537 45.1068 52.5772 45.0566C52.9008 45.002 53.1947 44.9382 53.4591 44.8652V41.8027H51.128V40.7637ZM57.2511 46V36.0059H58.4132V46H57.2511ZM64.4406 46H63.2716V37.0312H60.1271V36.0059H67.5714V37.0312H64.4406V46ZM75.5607 46L74.3303 42.8281H70.3244L69.1008 46H67.925L71.8352 35.9648H72.8811L76.7639 46H75.5607ZM73.9816 41.7959L72.8127 38.6445C72.7854 38.5625 72.7398 38.4281 72.676 38.2412C72.6167 38.0544 72.5552 37.8607 72.4914 37.6602C72.4276 37.4596 72.3752 37.2979 72.3342 37.1748C72.2886 37.3617 72.2385 37.5485 72.1838 37.7354C72.1337 37.9176 72.0835 38.0885 72.0334 38.248C71.9833 38.403 71.94 38.5352 71.9035 38.6445L70.7141 41.7959H73.9816ZM78.3616 46V36.0059H79.5237V44.9609H83.9602V46H78.3616Z" fill="white"/>
</svg>
