<svg width="14" height="24" viewBox="0 0 14 24" fill="none" xmlns="http://www.w3.org/2000/svg">
<path d="M8.42829 21.1428C8.42829 20.75 8.28841 20.4137 8.00865 20.1339C7.72889 19.8542 7.39258 19.7143 6.99972 19.7143C6.60686 19.7143 6.27055 19.8542 5.99079 20.1339C5.71103 20.4137 5.57115 20.75 5.57115 21.1428C5.57115 21.5357 5.71103 21.872 5.99079 22.1518C6.27055 22.4315 6.60686 22.5714 6.99972 22.5714C7.39258 22.5714 7.72889 22.4315 8.00865 22.1518C8.28841 21.872 8.42829 21.5357 8.42829 21.1428ZM12.1426 18.2857V5.71427C12.1426 5.55951 12.086 5.42558 11.9729 5.31248C11.8598 5.19939 11.7259 5.14284 11.5712 5.14284H2.42829C2.27353 5.14284 2.1396 5.19939 2.02651 5.31248C1.91341 5.42558 1.85686 5.55951 1.85686 5.71427V18.2857C1.85686 18.4405 1.91341 18.5744 2.02651 18.6875C2.1396 18.8006 2.27353 18.8571 2.42829 18.8571H11.5712C11.7259 18.8571 11.8598 18.8006 11.9729 18.6875C12.086 18.5744 12.1426 18.4405 12.1426 18.2857ZM8.71401 3.14284C8.71401 2.95236 8.61877 2.85713 8.42829 2.85713H5.57115C5.38067 2.85713 5.28544 2.95236 5.28544 3.14284C5.28544 3.33332 5.38067 3.42855 5.57115 3.42855H8.42829C8.61877 3.42855 8.71401 3.33332 8.71401 3.14284ZM13.8569 2.85713V21.1428C13.8569 21.7619 13.6307 22.2976 13.1783 22.75C12.7259 23.2024 12.1902 23.4286 11.5712 23.4286H2.42829C1.80924 23.4286 1.27353 23.2024 0.82115 22.75C0.368769 22.2976 0.142578 21.7619 0.142578 21.1428V2.85713C0.142578 2.23808 0.368769 1.70236 0.82115 1.24998C1.27353 0.797602 1.80924 0.571411 2.42829 0.571411H11.5712C12.1902 0.571411 12.7259 0.797602 13.1783 1.24998C13.6307 1.70236 13.8569 2.23808 13.8569 2.85713Z" fill="white"/>
</svg>
