<svg width="142" height="124" viewBox="0 0 142 124" fill="none" xmlns="http://www.w3.org/2000/svg">
<path d="M71.0004 104.5C75.4629 104.5 79.5629 106.063 82.7879 108.663L71.0004 123.25L59.2129 108.663C62.547 105.962 66.7096 104.492 71.0004 104.5V104.5ZM13.5504 0.706299L124.032 111.194L115.194 120.031L82.8192 87.6563C79.0072 86.3915 75.0167 85.7478 71.0004 85.75C62.0754 85.75 53.8754 88.8688 47.4379 94.075L39.5879 84.35C47.8007 77.6967 57.9185 73.8309 68.4754 73.3125L52.2504 57.0875C43.3264 59.6171 35.0086 63.9312 27.8004 69.7688L19.9379 60.0438C26.6742 54.5889 34.2409 50.2485 42.3504 47.1875L28.0754 32.9063C20.9697 36.2901 14.2881 40.5005 8.16914 45.45L0.306641 35.7313C6.02539 31.1063 12.2004 27.0375 18.7566 23.5938L4.70664 9.55005L13.5504 0.706299V0.706299ZM86.6254 56.2813L72.3504 42.0125L71.0004 42C90.3442 42 108.107 48.7563 122.063 60.0438L114.2 69.7688C106.147 63.2448 96.719 58.6332 86.6254 56.2813V56.2813ZM71.0004 10.75C97.7817 10.75 122.375 20.1063 141.688 35.7313L133.832 45.45C116.059 31.0541 93.8721 23.2149 71.0004 23.25C65.5129 23.25 60.1254 23.6875 54.8754 24.5438L44.2816 13.9375C52.8379 11.8563 61.7941 10.75 71.0004 10.75Z" fill="white" fill-opacity="0.6"/>
</svg>
