<svg width="35" height="35" viewBox="0 0 35 35" fill="none" xmlns="http://www.w3.org/2000/svg">
<path d="M24.1374 15.0804C24.834 15.0823 25.5242 14.9461 26.1678 14.6796C26.8114 14.4131 27.3957 14.0217 27.8869 13.5279L32.9897 8.43159C33.3932 8.02825 33.4304 7.37192 33.046 6.94871C32.9495 6.84238 32.8324 6.75676 32.7018 6.69703C32.5712 6.6373 32.4298 6.60472 32.2862 6.60125C32.1426 6.59778 31.9998 6.6235 31.8665 6.67685C31.7332 6.73021 31.612 6.81008 31.5105 6.91162L26.9625 11.4536C26.8097 11.6061 26.6027 11.6917 26.3869 11.6917C26.1711 11.6917 25.9641 11.6061 25.8114 11.4536C25.4939 11.1371 25.5112 10.6019 25.8279 10.2853L30.3561 5.75989C30.4576 5.65844 30.5374 5.53745 30.5908 5.40426C30.6441 5.27106 30.6698 5.12843 30.6663 4.98501C30.6629 4.84159 30.6303 4.70037 30.5706 4.5699C30.5109 4.43944 30.4253 4.32244 30.319 4.22602C30.1271 4.05207 29.8769 3.95636 29.6179 3.95779C29.3243 3.95799 29.0427 4.07472 28.8352 4.28231L24.311 8.80313C24.1583 8.95557 23.9513 9.04118 23.7355 9.04118C23.5196 9.04118 23.3126 8.95557 23.1599 8.80313C22.8431 8.48656 22.8597 7.95142 23.1765 7.63485L27.7047 3.11071C27.8062 3.00927 27.886 2.88828 27.9393 2.75508C27.9927 2.62188 28.0184 2.47925 28.0149 2.33583C28.0114 2.19241 27.9788 2.05119 27.9191 1.92072C27.8594 1.79026 27.7738 1.67327 27.6676 1.57684C27.4757 1.40289 27.2255 1.30718 26.9664 1.30861C26.6728 1.30896 26.3914 1.42567 26.1838 1.63313L21.0844 6.72949C20.5903 7.22049 20.1986 7.80458 19.9319 8.44792C19.6653 9.09126 19.529 9.78107 19.531 10.4774V11.0225C19.5311 11.1618 19.5037 11.2999 19.4504 11.4286C19.397 11.5574 19.3188 11.6744 19.2202 11.7729L16.8603 14.132C16.8357 14.1566 16.8065 14.1761 16.7743 14.1895C16.7421 14.2028 16.7076 14.2097 16.6728 14.2097C16.638 14.2097 16.6035 14.2028 16.5713 14.1895C16.5391 14.1761 16.5099 14.1566 16.4852 14.132L5.00207 2.65505C4.80388 2.45676 4.53515 2.34501 4.25471 2.34426C3.97426 2.34352 3.70495 2.45384 3.5057 2.65108C2.50172 3.64518 1.9656 5.04859 1.9656 6.70896C1.95897 9.45086 3.401 12.6034 5.72904 14.9267L11.3918 20.586C12.1966 21.3887 13.2872 21.8396 14.4243 21.8397C14.7868 21.8399 15.1478 21.7936 15.4985 21.702C15.5866 21.6789 15.6772 21.6671 15.7682 21.6669C16.0344 21.6669 16.2907 21.7675 16.4859 21.9484L17.2407 22.6451C17.4354 22.8439 17.5448 23.1107 17.5456 23.3888V23.7558C17.5436 24.5899 17.8716 25.3909 18.4581 25.9844L24.4257 32.049L24.4316 32.0556C25.094 32.7175 25.9923 33.0893 26.9289 33.0892C27.8655 33.0892 28.7638 32.7172 29.426 32.0553C30.0883 31.3934 30.4603 30.4956 30.4602 29.5595C30.4602 28.6235 30.088 27.7258 29.4257 27.0639L20.4806 18.1243C20.456 18.0997 20.4364 18.0704 20.4231 18.0383C20.4098 18.0061 20.4029 17.9717 20.4029 17.9368C20.4029 17.902 20.4098 17.8676 20.4231 17.8354C20.4364 17.8032 20.456 17.774 20.4806 17.7494L22.8405 15.391C22.939 15.2925 23.0559 15.2144 23.1846 15.1611C23.3134 15.1078 23.4513 15.0803 23.5907 15.0804H24.1374Z" fill="white"/>
<path d="M14.4243 23.959C12.7267 23.9555 11.0989 23.2833 9.89407 22.0881L8.97558 21.1701C8.87619 21.071 8.74154 21.0154 8.60116 21.0154C8.46077 21.0154 8.32612 21.071 8.22673 21.1701L2.59383 26.7705C1.58985 27.7739 1.23133 29.2508 1.72835 30.6972C1.75617 30.7787 1.78915 30.8584 1.82709 30.9357C2.49575 32.304 3.79331 33.0987 5.2128 33.0987C5.70096 33.0999 6.18451 33.0043 6.63544 32.8174C7.08636 32.6305 7.49569 32.356 7.83972 32.0099L15.352 24.4664C15.3836 24.4341 15.4079 24.3954 15.423 24.3528C15.4381 24.3103 15.4437 24.2649 15.4395 24.22V24.2028C15.4366 24.1615 15.4253 24.1212 15.4063 24.0844C15.3874 24.0475 15.3612 24.0149 15.3293 23.9885C15.2974 23.9621 15.2605 23.9424 15.2208 23.9306C15.1811 23.9188 15.1394 23.9152 15.0982 23.92C14.8744 23.9448 14.6494 23.9578 14.4243 23.959Z" fill="white"/>
</svg>
